<svg xmlns="http://www.w3.org/2000/svg" width="1280" height="640" viewBox="0 0 1280 640" role="img" aria-labelledby="title desc">
  <title id="title">CodeDebrief social preview</title>
  <desc id="desc">Source-grounded workflow diagrams for coding agents.</desc>
  <defs>
    <linearGradient id="bg" x1="0" y1="0" x2="1" y2="1">
      <stop offset="0" stop-color="#070a10"/>
      <stop offset="1" stop-color="#101827"/>
    </linearGradient>
    <linearGradient id="panel" x1="0" y1="0" x2="1" y2="1">
      <stop offset="0" stop-color="#111827"/>
      <stop offset="1" stop-color="#0b1019"/>
    </linearGradient>
    <filter id="soft-shadow" x="-20%" y="-20%" width="140%" height="140%">
      <feDropShadow dx="0" dy="18" stdDeviation="26" flood-color="#000000" flood-opacity="0.42"/>
    </filter>
  </defs>

  <rect width="1280" height="640" fill="url(#bg)"/>
  <circle cx="1120" cy="108" r="260" fill="#6f93ff" opacity="0.08"/>
  <circle cx="1010" cy="520" r="220" fill="#24d7e6" opacity="0.06"/>

  <g transform="translate(86 84)">
    <g transform="translate(0 0) scale(1.46)" aria-hidden="true">
      <circle cx="13" cy="7.5" r="5.5" fill="#6f93ff"/>
      <line x1="13" y1="17.5" x2="13" y2="21" stroke="#a78bfa" stroke-width="3" stroke-linecap="round"/>
      <polygon points="13,25 19.5,31 13,37 6.5,31" fill="#f0b33f"/>
    </g>
    <text x="58" y="59" fill="#edf2fb" font-family="Inter, ui-sans-serif, system-ui, -apple-system, Segoe UI, sans-serif" font-size="86" font-weight="850">CodeDebrief</text>
    <text x="4" y="146" fill="#c8d1e1" font-family="Inter, ui-sans-serif, system-ui, -apple-system, Segoe UI, sans-serif" font-size="30" font-weight="700">Source-grounded workflow diagrams</text>
    <text x="4" y="188" fill="#c8d1e1" font-family="Inter, ui-sans-serif, system-ui, -apple-system, Segoe UI, sans-serif" font-size="30" font-weight="700">for coding agents and codebase exploration.</text>

    <g transform="translate(4 230)" font-family="ui-monospace, SFMono-Regular, Menlo, monospace" font-size="18" font-weight="800">
      <rect x="0" y="0" width="162" height="42" rx="21" fill="#202637" stroke="#344057"/>
      <text x="81" y="28" text-anchor="middle" fill="#edf2fb">MCP-first</text>
      <rect x="184" y="0" width="150" height="42" rx="21" fill="#202637" stroke="#344057"/>
      <text x="259" y="28" text-anchor="middle" fill="#edf2fb">Mermaid</text>
      <rect x="356" y="0" width="178" height="42" rx="21" fill="#202637" stroke="#344057"/>
      <text x="445" y="28" text-anchor="middle" fill="#edf2fb">Local-first</text>
    </g>
  </g>

  <g transform="translate(740 136)" filter="url(#soft-shadow)">
    <rect x="0" y="0" width="430" height="368" rx="34" fill="url(#panel)" stroke="#253044" stroke-width="2"/>

    <g font-family="ui-monospace, SFMono-Regular, Menlo, monospace" font-weight="820">
      <rect x="120" y="36" width="190" height="68" rx="18" fill="#151c2b" stroke="#6f93ff" stroke-width="3"/>
      <text x="215" y="66" text-anchor="middle" fill="#edf2fb" font-size="23">code</text>
      <text x="215" y="89" text-anchor="middle" fill="#8f9bb0" font-size="15">source files</text>

      <path d="M125 180l90-64 90 64-90 64z" fill="#2a220f" stroke="#f0b33f" stroke-width="3"/>
      <text x="215" y="176" text-anchor="middle" fill="#edf2fb" font-size="20">workflow</text>
      <text x="215" y="199" text-anchor="middle" fill="#f1c76b" font-size="15">slice</text>

      <rect x="35" y="280" width="360" height="68" rx="18" fill="#101f24" stroke="#24d7e6" stroke-width="3"/>
      <text x="215" y="310" text-anchor="middle" fill="#edf2fb" font-size="23">visual explanation</text>
      <text x="215" y="333" text-anchor="middle" fill="#8f9bb0" font-size="15">deterministic, navigable, cited</text>

      <g stroke="#8f9bb0" stroke-width="4" fill="none" stroke-linecap="round" stroke-linejoin="round">
        <path d="M215 104V116"/>
        <path d="M215 244V280"/>
      </g>
    </g>
  </g>

  <text x="90" y="572" fill="#6f7788" font-family="Inter, ui-sans-serif, system-ui, -apple-system, Segoe UI, sans-serif" font-size="22" font-weight="650">Ask about a feature. Get the flowchart behind it.</text>
</svg>
