<svg xmlns="http://www.w3.org/2000/svg" viewBox="0 0 820 380" width="820" height="380" font-family="system-ui, -apple-system, 'Segoe UI', Roboto, sans-serif" role="img" aria-label="Before AI you built code by hand and understood it; with AI no one knows how it works; with AI plus LogicChart you understand it again.">
  <rect x="0" y="0" width="820" height="380" rx="16" fill="#ffffff"/>

  <!-- titles -->
  <text x="145" y="44" text-anchor="middle" font-size="19" font-weight="600" fill="#1b1f24">Before AI</text>
  <text x="410" y="44" text-anchor="middle" font-size="19" font-weight="600" fill="#1b1f24">With AI</text>
  <text x="675" y="44" text-anchor="middle" font-size="19" font-weight="600" fill="#1b1f24">With AI + LogicChart</text>

  <!-- column cards -->
  <rect x="30" y="64" width="230" height="286" rx="12" fill="#f6f8fa" stroke="#d0d7de" stroke-width="1"/>
  <rect x="295" y="64" width="230" height="286" rx="12" fill="#f6f8fa" stroke="#d0d7de" stroke-width="1"/>
  <rect x="560" y="64" width="230" height="286" rx="12" fill="#f6f8fa" stroke="#d0d7de" stroke-width="1"/>

  <!-- column 1: colored squares connected -->
  <g stroke="#8a8f98" stroke-width="2" stroke-linecap="round">
    <line x1="100" y1="114" x2="200" y2="149"/>
    <line x1="100" y1="114" x2="90" y2="209"/>
    <line x1="200" y1="149" x2="190" y2="249"/>
    <line x1="90" y1="209" x2="190" y2="249"/>
    <line x1="190" y1="249" x2="135" y2="299"/>
    <line x1="90" y1="209" x2="135" y2="299"/>
  </g>
  <g>
    <rect x="83" y="97" width="34" height="34" rx="7" fill="#2f63ef"/>
    <rect x="183" y="132" width="34" height="34" rx="7" fill="#1d9e75"/>
    <rect x="73" y="192" width="34" height="34" rx="7" fill="#df9a12"/>
    <rect x="173" y="232" width="34" height="34" rx="7" fill="#7458dc"/>
    <rect x="118" y="282" width="34" height="34" rx="7" fill="#639922"/>
  </g>

  <!-- column 2: unknown -->
  <text x="410" y="245" text-anchor="middle" font-size="128" font-weight="700" fill="#c2c7ce">?</text>
  <text x="410" y="300" text-anchor="middle" font-size="17" font-weight="500" fill="#6a6f76">No one knows</text>

  <!-- column 3: colored squares connected (same as column 1) -->
  <g stroke="#8a8f98" stroke-width="2" stroke-linecap="round">
    <line x1="630" y1="114" x2="730" y2="149"/>
    <line x1="630" y1="114" x2="620" y2="209"/>
    <line x1="730" y1="149" x2="720" y2="249"/>
    <line x1="620" y1="209" x2="720" y2="249"/>
    <line x1="720" y1="249" x2="665" y2="299"/>
    <line x1="620" y1="209" x2="665" y2="299"/>
  </g>
  <g>
    <rect x="613" y="97" width="34" height="34" rx="7" fill="#2f63ef"/>
    <rect x="713" y="132" width="34" height="34" rx="7" fill="#1d9e75"/>
    <rect x="603" y="192" width="34" height="34" rx="7" fill="#df9a12"/>
    <rect x="703" y="232" width="34" height="34" rx="7" fill="#7458dc"/>
    <rect x="648" y="282" width="34" height="34" rx="7" fill="#639922"/>
  </g>
</svg>
